<svg width="74" height="74" viewBox="0 0 74 74" fill="none" xmlns="http://www.w3.org/2000/svg">
<path d="M47.9407 1.01369L36.79 12.1644H25.3425V1.01369H47.9407ZM26.0593 72.9863L37.21 61.8356H48.6575V72.9863H26.0593ZM1.01369 49.6712H12.1644V61.1188L1.01369 72.2695V49.6712ZM1.01369 25.3425H12.1644V36.79L1.01369 47.9407V25.3425ZM12.1644 24.3288H1.73053L12.1644 13.8949V24.3288ZM13.8949 12.1644L24.3288 1.73053V12.1644H13.8949ZM24.3288 24.3288H13.1781V13.1781H24.3288V24.3288ZM25.3425 23.6119V13.1781H35.7763L25.3425 23.6119ZM48.6575 13.1781V24.3288H26.0593L37.21 13.1781H48.6575ZM48.6575 12.1644H38.2237L48.6575 1.73053V12.1644ZM61.1188 12.1644H49.6712V1.01369H72.2695L61.1188 12.1644ZM72.9863 24.3288H61.8356V12.8812L72.9863 1.73053V24.3288ZM72.9863 48.6575H61.8356V37.21L72.9863 26.0593V48.6575ZM61.8356 49.6712H72.2695L61.8356 60.1051V49.6712ZM60.1051 61.8356L49.6712 72.2695V61.8356H60.1051ZM49.6712 49.6712H60.8219V60.8219H49.6712V49.6712ZM48.6575 50.3881V60.8219H38.2237L48.6575 50.3881ZM25.3425 60.8219V49.6712H47.9407L36.79 60.8219H25.3425ZM25.3425 61.8356H35.7763L25.3425 72.2695V61.8356ZM12.8812 61.8356H24.3288V72.9863H1.73053L12.8812 61.8356ZM24.3288 50.3881V60.8219H13.8949L24.3288 50.3881ZM23.6119 49.6712L13.1781 60.1051V49.6712H23.6119ZM13.1781 35.7763V25.3425H23.6119L13.1781 35.7763ZM48.6575 48.6575H25.3425V25.3425H48.6575V48.6575ZM49.6712 23.6119V13.1781H60.1051L49.6712 23.6119ZM50.3881 24.3288L60.8219 13.8949V24.3288H50.3881ZM60.8219 38.2237V48.6575H50.3881L60.8219 38.2237ZM61.8356 25.3425H72.2695L61.8356 35.7763V25.3425ZM60.8219 36.79L49.6712 47.9407V25.3425H60.8219V36.79ZM12.1644 48.6575H1.73053L12.1644 38.2237V48.6575ZM13.1781 37.21L24.3288 26.0593V48.6575H13.1781V37.21ZM0.506844 74H49.1644C49.2991 74 49.428 73.9464 49.5235 73.8508L73.8508 49.5235C73.9464 49.4279 74 49.2991 74 49.1644V0.506844C74 0.227356 73.7741 0 73.4932 0H24.8356C24.7009 0 24.572 0.0535889 24.4765 0.14917L0.14917 24.4765C0.0535889 24.572 0 24.7009 0 24.8356V73.4932C0 73.7726 0.225906 74 0.506844 74Z" fill="#FFC700"/>
</svg>
