<svg width="12" height="13" viewBox="0 0 12 13" fill="none" xmlns="http://www.w3.org/2000/svg">
<path fill-rule="evenodd" clip-rule="evenodd" d="M2.48244 0H5.5855C6.95652 0 8.06794 1.11143 8.06794 2.48244V5.74071L3.72369 5.74071C3.46663 5.74071 3.25824 5.9491 3.25824 6.20617C3.25824 6.46323 3.46663 6.67163 3.72369 6.67163L8.06794 6.67163V9.92978C8.06794 11.3008 6.95651 12.4122 5.5855 12.4122H2.48244C1.11143 12.4122 0 11.3008 0 9.92978V8.68855V3.72367V2.48244C0 1.11143 1.11143 0 2.48244 0ZM8.06794 6.67163H10.6679L9.60068 7.73887C9.4189 7.92064 9.4189 8.21536 9.60068 8.39713C9.78245 8.5789 10.0772 8.5789 10.2589 8.39713L11.6819 6.97413C12.1061 6.55 12.1061 5.86234 11.6819 5.4382L10.2589 4.01521C10.0772 3.83343 9.78245 3.83343 9.60068 4.01521C9.4189 4.19698 9.4189 4.49169 9.60068 4.67346L10.6679 5.74071L8.06794 5.74071V6.67163Z" fill="white"/>
</svg>
